<svg id="b8f423e2-64a3-4272-b8ba-48509d419ce9" data-name="Layer 1" xmlns="http://www.w3.org/2000/svg" viewBox="0 0 97.4993 50"><defs><style>.b25d164b-7808-4c61-9ac8-7263e991f7d9{fill:#52b788;}</style></defs><path class="b25d164b-7808-4c61-9ac8-7263e991f7d9" d="M15.99575,33.50063a7.18379,7.18379,0,0,1-.61158-.77414c-.449-.61931-.87478-1.26185-1.27733-1.90439l-2.036-3.21268a5.64345,5.64345,0,0,1-1.169-2.95722,2.15983,2.15983,0,0,1,1.37023-2.1134c-.06968-1.2154-.11612-2.44629-.11612-3.66943,0-.72,0-1.45539.0387-2.1676a6.07733,6.07733,0,0,1,.24773-1.347,7.74144,7.74144,0,0,1,3.45267-4.38164,11.21759,11.21759,0,0,1,1.86568-.8593c1.18443-.43351.61157-2.245,1.91212-2.276,3.03464-.07741,8.02785,2.5237,9.97094,4.64485a7.31561,7.31561,0,0,1,1.98954,4.9932l-.12386,5.31835a1.50184,1.50184,0,0,1,1.09928,1.09154,4.55976,4.55976,0,0,1-.57287,2.80239h0c0,.04645-.0387.04645-.0387.08515l-2.32243,3.81652c-.52641.8593-1.06831,1.74182-1.67988,2.54692-.72.96768-1.316.77415-.69673,1.7186a6.805,6.805,0,0,0,.98316,1.02186c-4.44357,1.97406-7.93494,5.34158-7.93494,13.27652h-19.16c0-12.1153,10.58251-8.26008,15.00285-14.35257C16.70021,34.02705,16.56861,34.1122,15.99575,33.50063ZM42.99,32.36265c-1.4012-1.23863-3.1585-2.32243-3.39074-4.90031h-.15483a1.98187,1.98187,0,0,1-.9909-.26321A2.7172,2.7172,0,0,1,37.362,25.87535c-.5032-1.16121-.90575-4.20359.36384-5.07837l-.24-.15483v-.34062c-.04645-.61157-.06194-1.35474-.07742-2.13663-.04644-2.86432-.10063-6.33247-2.40757-7.0292l-.98316-.30191.65027-.77414A37.3597,37.3597,0,0,1,40.43538,4.1994,14.76285,14.76285,0,0,1,47.05428.92478a8.05107,8.05107,0,0,1,6.495,1.81923,11.61259,11.61259,0,0,1,1.74182,1.74956A7.38533,7.38533,0,0,1,60.49337,7.536a10.45072,10.45072,0,0,1,1.69537,3.414,11.89879,11.89879,0,0,1,.45674,3.8707,9.28973,9.28973,0,0,1-2.70175,6.286,2.05906,2.05906,0,0,1,.84381.21676,2.15583,2.15583,0,0,1,.77414,2.57014c-.24773.77415-.56513,1.68763-.867,2.44629-.36385,1.02961-.89026,1.22314-1.91987,1.11476-.04645,2.516-1.88891,3.54557-3.46041,5.0087,3.8707,7.16854,18.90452,2.43854,18.90452,16.69047H24.0081c0-14.25193,14.70868-9.28969,18.96646-16.78337Zm28.04712,1.68762a8.94238,8.94238,0,0,1-.58835-.72769c-.42578-.59609-.84381-1.2154-1.23088-1.84245l-1.95857-3.09657a5.4189,5.4189,0,0,1-1.138-2.85658,2.08244,2.08244,0,0,1,1.33152-2.036c-.06967-1.16895-.11612-2.36113-.11612-3.53782V17.85525a5.59776,5.59776,0,0,1,.23224-1.29282,7.455,7.455,0,0,1,3.32881-4.22681,10.25009,10.25009,0,0,1,1.81149-.867c1.138-.418.58835-2.16759,1.84245-2.19081,2.92625-.07742,7.74141,2.4308,9.62257,4.46679a7.05244,7.05244,0,0,1,1.91988,4.81516l-.12387,5.13255a1.42443,1.42443,0,0,1,1.06058,1.05283,4.36625,4.36625,0,0,1-.54964,2.70176h0s-.03871,0-.03871.07741L84.213,31.20918c-.51093.82833-1.0296,1.67989-1.618,2.46177-.70447.929-1.27733.77414-.68124,1.65666,4.27326,5.87573,14.399,2.16759,14.399,13.84938H77.82638c0-7.53239-3.22043-10.98506-7.37756-13.01331a6.87288,6.87288,0,0,0,.72769-.83607c.48771-.71995.36385-.66576-.19353-1.25411Z"/></svg>