<svg id="fb30ef98-500f-4464-b646-07efa0b4e510" data-name="Layer 1" xmlns="http://www.w3.org/2000/svg" viewBox="0 0 76.35398 50"><defs><style>.a49c6532-6a51-4c6a-9cdd-1d30db3e744a{fill:#52b788;fill-rule:evenodd;}</style></defs><path class="a49c6532-6a51-4c6a-9cdd-1d30db3e744a" d="M32.26926,34.96375h0c2.29014,2.06292,12.47919,3.58769,15.00254,4.99287a4.186,4.186,0,0,1,.41856.26907,10.56492,10.56492,0,0,0,4.096-1.69219,5.04659,5.04659,0,0,0-.27506-1.40518,8.68823,8.68823,0,0,1-2.70871-5.97949c-1.69219.17938-1.96725-6.5296,0-4.2574l-.11361-.40062a1.38717,1.38717,0,0,1-.43052-.861V21.37835L54.794,23.3755a8.61632,8.61632,0,0,0,3.70728,0l6.84053-1.97323.11362,4.18564a2.32,2.32,0,0,1-.3229.99857,1.704,1.704,0,0,1-.59795.50228v.07175c1.9553-1.51281,1.1959,4.78359-.66372,4.62215a7.48629,7.48629,0,0,1-2.033,5.09452l-.287.287a3.78486,3.78486,0,0,0-.25114,1.38724h0c1.71013,1.54271,9.34594,2.69077,11.22948,3.74316,2.39179,1.32745,1.84766,4.52049,2.39179,6.88239H1.433c.70558-3.12129,0-7.45044,3.17511-9.19645C8.08821,38.04917,16.89,37.43926,19.61068,34.98767A6.75065,6.75065,0,0,0,19.24,33.11609a11.6122,11.6122,0,0,1-3.61759-8.00056c-2.23034.22124-2.631-8.748,0-5.75825-.09567-.33485-.18536-.64578-.26309-.93878a2.027,2.027,0,0,1-.77136-1.3095V11.32683l8.96924,2.73861a11.95907,11.95907,0,0,0,5.08256,0l9.37584-2.70871.15546,5.70443a3.169,3.169,0,0,1-.44846,1.3693,2.3918,2.3918,0,0,1-.98063.75342c-.04784.18536-.10165.37073-.16145.56805,2.619-2.01509,1.5726,6.36217-.879,6.18279a10.05753,10.05753,0,0,1-2.71469,6.81064l-.38867.38268a5.02885,5.02885,0,0,0-.32887,1.84767ZM68.24784,18.96862v4.52049h.15546a.19732.19732,0,0,1,.19733.19732h0v1.36931a.20331.20331,0,0,1-.19733.2033h-.16144v.47836a.43651.43651,0,0,1,.35877.43052h0a.44249.44249,0,0,1-.44248.44249h-.78929a.44249.44249,0,0,1-.44249-.44249h0a.43651.43651,0,0,1,.36475-.43052V25.259h-.16144a.2033.2033,0,0,1-.2033-.2033V23.68643a.20329.20329,0,0,1,.2033-.19732h.16144V19.26759l-8.32345,2.58912a9.35181,9.35181,0,0,1-4.52647,0l-9.19047-2.74459-.83115-.25113c-1.03446-.41857-.77734-1.41714.18536-1.64436l10.39833-3.10336a5.38155,5.38155,0,0,1,3.217,0L68.4033,17.18075c1.11219.26908,1.32745,1.29755.03588,1.72209l-.21526.06578ZM41.974,7.81089v6.41h.22124a.27506.27506,0,0,1,.27506.26908v1.87756a.27506.27506,0,0,1-.27506.26908H41.974v.65774a.598.598,0,0,1,.4963.59795h0a.598.598,0,0,1-.59795.598H40.77807a.598.598,0,0,1-.59795-.598h0a.598.598,0,0,1,.4963-.59795v-.65774h-.22124a.27507.27507,0,0,1-.27506-.26908V14.49a.27507.27507,0,0,1,.27506-.26908h.22124V8.24142L29.2556,11.76931a12.87388,12.87388,0,0,1-6.20073,0L10.46207,7.99626,9.326,7.65543c-1.42311-.59795-1.06434-1.94334.25712-2.25427L23.82622,1.1617a7.33683,7.33683,0,0,1,4.40688,0l13.992,4.18564c1.51879.36475,1.79384,1.79385.04783,2.35592l-.299.08969Z"/></svg>