<svg xmlns="http://www.w3.org/2000/svg" width="42" height="42" viewBox="0 0 42 42">
  <g id="Group_376" data-name="Group 376" transform="translate(-61.5 -10738.346)">
    <g id="facebook" transform="translate(70.148 10747.148)">
      <path id="Path_933" data-name="Path 933" d="M22.8,0H1.331A1.332,1.332,0,0,0,0,1.332V22.8a1.332,1.332,0,0,0,1.332,1.331H22.8A1.332,1.332,0,0,0,24.132,22.8h0V1.331A1.332,1.332,0,0,0,22.8,0Zm0,0" transform="translate(0 0)" fill="#fff"/>
      <path id="Path_934" data-name="Path 934" d="M213.905,97.812V88.48h3.146l.471-3.653h-3.618V82.5c0-1.055.293-1.774,1.806-1.774h1.918V77.468a25.776,25.776,0,0,0-2.81-.144c-2.781,0-4.684,1.7-4.684,4.814v2.688H207V88.48h3.134v9.332Zm0,0" transform="translate(-197.243 -73.68)" fill="#081c15"/>
    </g>
    <g id="Rectangle_32" data-name="Rectangle 32" transform="translate(61.5 10738.346)" fill="none" stroke="#fff" stroke-width="1">
      <rect width="42" height="42" rx="5" stroke="none"/>
      <rect x="0.5" y="0.5" width="41" height="41" rx="4.5" fill="none"/>
    </g>
  </g>
</svg>
