<svg xmlns="http://www.w3.org/2000/svg" width="42" height="42" viewBox="0 0 42 42">
  <g id="Group_375" data-name="Group 375" transform="translate(-112.5 -10738.346)">
    <g id="linkedin" transform="translate(121.225 10747.148)">
      <path id="Path_937" data-name="Path 937" d="M24.573,24.613h.006V15.482c0-4.467-.962-7.908-6.184-7.908a5.421,5.421,0,0,0-4.883,2.684H13.44V7.991H8.489V24.612h5.156v-8.23c0-2.167.411-4.262,3.094-4.262,2.644,0,2.684,2.473,2.684,4.4v8.092Z" transform="translate(0.317 0.283)" fill="#fff"/>
      <path id="Path_938" data-name="Path 938" d="M.4,7.977H5.558V24.6H.4Z" transform="translate(0.015 0.298)" fill="#fff"/>
      <path id="Path_939" data-name="Path 939" d="M2.99,0a3,3,0,1,0,2.99,2.99A2.991,2.991,0,0,0,2.99,0Z" fill="#fff"/>
    </g>
    <g id="Rectangle_33" data-name="Rectangle 33" transform="translate(112.5 10738.346)" fill="none" stroke="#fff" stroke-width="1">
      <rect width="42" height="42" rx="5" stroke="none"/>
      <rect x="0.5" y="0.5" width="41" height="41" rx="4.5" fill="none"/>
    </g>
  </g>
</svg>
