<svg id="ef135cf5-cad6-4e48-b3a8-b877b510a243" data-name="Layer 1" xmlns="http://www.w3.org/2000/svg" viewBox="0 0 55.53982 50"><defs><style>.bb41d435-a1a8-4aab-9ed7-e19f35a81eaa{fill:#52b788;fill-rule:evenodd;}</style></defs><path class="bb41d435-a1a8-4aab-9ed7-e19f35a81eaa" d="M9.6349,40.14545,9.74868,19.733H7.44576V45.70856a39.19691,39.19691,0,0,1,9.54515-1.35743,26.77314,26.77314,0,0,1,8.87036,1.39666,18.94458,18.94458,0,0,0-6.081-3.29942,22.20239,22.20239,0,0,0-8.79582-.93372A1.25867,1.25867,0,0,1,9.631,40.36908a1.39388,1.39388,0,0,1,.00392-.22363ZM27.77187.89381A11.87144,11.87144,0,0,1,39.57679,11.55315a47.64333,47.64333,0,0,1,5.30809.25108A1.24927,1.24927,0,0,1,45.952,13.044h0V17.2261h3.40141a1.25241,1.25241,0,0,1,1.25151,1.2515v28.863A1.25325,1.25325,0,0,1,49.35341,48.596a1.28907,1.28907,0,0,1-.408-.06669,38.9274,38.9274,0,0,0-10.40433-1.687,24.14952,24.14952,0,0,0-10.06694,2.05183,1.29241,1.29241,0,0,1-.714.21186,1.25821,1.25821,0,0,1-.714-.21186,24.06376,24.06376,0,0,0-10.06694-2.05183,38.97754,38.97754,0,0,0-10.40433,1.687,1.23895,1.23895,0,0,1-1.6399-1.18481V18.4776a1.2524,1.2524,0,0,1,1.2515-1.2515H9.75652L9.78006,13.04a1.25289,1.25289,0,0,1,.9965-1.22011h0a37.749,37.749,0,0,1,5.20216-.3884A11.87055,11.87055,0,0,1,27.77187.89381ZM39.56894,14.064A11.8785,11.8785,0,0,1,29.043,24.56249V43.35463a30.02757,30.02757,0,0,1,6.53213-3.3818,18.80576,18.80576,0,0,1,7.87387-1.122V18.66591h0a1.46361,1.46361,0,0,1-.01569-.18831,1.01693,1.01693,0,0,1,.01569-.18831V14.15423c-.80818-.07846-2.47162-.10985-3.88005-.09023ZM26.53606,24.56641A11.87432,11.87432,0,0,1,15.963,13.92276a34.58193,34.58193,0,0,0-3.68781.1687L12.134,38.92534a24.24442,24.24442,0,0,1,8.41527,1.13773,21.52467,21.52467,0,0,1,5.98681,3.04832h0v-18.545Zm3.72312,20.98914a26.91227,26.91227,0,0,1,8.29758-1.21227,39.20338,39.20338,0,0,1,9.54515,1.36135V19.733h-2.146v20.5262a1.24989,1.24989,0,0,1-1.2515,1.2515,1.40025,1.40025,0,0,1-.29032-.03139,16.03748,16.03748,0,0,0-7.99549.85134,27.868,27.868,0,0,0-6.15943,3.22487Zm.98473-25.68913H24.29984V18.6973h1.30642V11.55707H24.29983v-.9298h3.24449a9.91132,9.91132,0,0,0,2.42454-.29816V18.6973h1.27505v1.16912ZM28.23873,4.96609a1.73233,1.73233,0,0,1,1.27112.46294,1.7179,1.7179,0,0,1,.459,1.27112,1.86124,1.86124,0,0,1-.79249,1.46727,2.86432,2.86432,0,0,1-1.84783.64341,1.79435,1.79435,0,0,1-1.26719-.44332,1.518,1.518,0,0,1-.48256-1.16912,2.0052,2.0052,0,0,1,.78464-1.5732,2.80658,2.80658,0,0,1,1.87529-.6591Z"/></svg>