<svg id="fc587e34-07ad-42c5-ad50-9b45b9cbc7a4" data-name="Layer 1" xmlns="http://www.w3.org/2000/svg" viewBox="0 0 55.53982 50"><defs><style>.f21795c9-c57b-4aa6-90e4-8974a3176b6e{fill:#fff;}</style></defs><path class="f21795c9-c57b-4aa6-90e4-8974a3176b6e" d="M18.51293,2.624a24.28071,24.28071,0,1,1-7.86193,5.257,24.13713,24.13713,0,0,1,7.86193-5.257Zm4.74868,16.73666a2.522,2.522,0,0,1,3.598-3.53491l7.35751,7.47573a2.52389,2.52389,0,0,1,0,3.53885l-7.21564,7.33386a2.522,2.522,0,1,1-3.598-3.53491l5.47774-5.56838-5.61961-5.71024Zm-2.81374-12.051a19.25768,19.25768,0,1,0,7.322-1.44628,19.19508,19.19508,0,0,0-7.322,1.44628Z"/></svg>