<svg id="b6985c81-63a5-4dcb-9900-75951b1a679c" data-name="Layer 1" xmlns="http://www.w3.org/2000/svg" viewBox="0 0 55.53982 50"><defs><style>.e30b4eba-4006-4d10-89c9-fbd227abb4fe{fill:#fff;}</style></defs><path class="e30b4eba-4006-4d10-89c9-fbd227abb4fe" d="M37.02689,2.624a24.21839,24.21839,0,1,1-9.257-1.83642,24.13985,24.13985,0,0,1,9.257,1.83642ZM32.27821,19.36069,26.6586,25.07093l5.47774,5.56838a2.522,2.522,0,0,1-3.598,3.53491l-7.21564-7.33386a2.52389,2.52389,0,0,1,0-3.53885l7.35751-7.47573a2.522,2.522,0,0,1,3.598,3.53491ZM35.092,7.30966a19.23765,19.23765,0,1,0,6.21073,4.15757A19.14837,19.14837,0,0,0,35.092,7.30966Z"/></svg>