<svg xmlns="http://www.w3.org/2000/svg" width="42" height="42" viewBox="0 0 42 42">
  <g id="Group_374" data-name="Group 374" transform="translate(-163.5 -10738.346)">
    <path id="twitter" d="M9.42,20.308c11.206,0,17.334-9.284,17.334-17.334q0-.4-.017-.787A12.4,12.4,0,0,0,29.776-.968a12.155,12.155,0,0,1-3.5.959,6.115,6.115,0,0,0,2.679-3.37A12.219,12.219,0,0,1,25.088-1.9,6.1,6.1,0,0,0,14.706,3.656,17.3,17.3,0,0,1,2.148-2.709,6.078,6.078,0,0,0,1.323.353,6.087,6.087,0,0,0,4.034,5.424a6.045,6.045,0,0,1-2.759-.762c0,.026,0,.05,0,.078a6.094,6.094,0,0,0,4.888,5.972,6.114,6.114,0,0,1-1.607.214,6.054,6.054,0,0,1-1.145-.11A6.1,6.1,0,0,0,9.1,15.048a12.222,12.222,0,0,1-7.567,2.608,12.4,12.4,0,0,1-1.453-.084A17.245,17.245,0,0,0,9.42,20.308" transform="translate(169.172 10750.973)" fill="#fff"/>
    <g id="Rectangle_34" data-name="Rectangle 34" transform="translate(163.5 10738.346)" fill="none" stroke="#fff" stroke-width="1">
      <rect width="42" height="42" rx="5" stroke="none"/>
      <rect x="0.5" y="0.5" width="41" height="41" rx="4.5" fill="none"/>
    </g>
  </g>
</svg>
