<svg id="b976516a-8901-4450-8a32-48309e7665bf" data-name="Layer 1" xmlns="http://www.w3.org/2000/svg" viewBox="0 0 55.53982 50"><defs><style>.e4ea45d9-b91c-4275-8cde-23b989e1a80e{fill:#52b788;}.e4ea45d9-b91c-4275-8cde-23b989e1a80e,.ed293e0e-4287-4673-b774-57f9736fbe32{fill-rule:evenodd;}.ed293e0e-4287-4673-b774-57f9736fbe32{fill:#fff;}</style></defs><g id="e9f0411c-01b8-476d-a886-c21526ce4a5e" data-name="Group 352"><path id="addc3494-ba9f-45d6-81e5-79de31cf7628" data-name="Path 4" class="e4ea45d9-b91c-4275-8cde-23b989e1a80e" d="M5.74544.823H49.79438a3.95085,3.95085,0,0,1,3.93836,3.93836V35.87084a3.95941,3.95941,0,0,1-3.93836,3.93836H37.2352l-6.82864,8.05567a3.45215,3.45215,0,0,1-5.41738,0L18.28752,39.8092H5.74544a3.95547,3.95547,0,0,1-3.93836-3.93836V4.76137A3.94757,3.94757,0,0,1,5.74544.823Z"/><path id="b3e697f5-783c-47ef-ac6a-f94feb91194e" data-name="Path 5" class="ed293e0e-4287-4673-b774-57f9736fbe32" d="M21.93312,21.90566h12.652a4.64826,4.64826,0,0,1,4.64826,4.64826v1.81259a.57043.57043,0,0,1-.57042.56648H17.85923a.57044.57044,0,0,1-.57043-.56648v-1.8172a4.64827,4.64827,0,0,1,4.64827-4.64826ZM28.2716,8.24378a6.01609,6.01609,0,1,1-.0125,0Z"/></g></svg>