<svg xmlns="http://www.w3.org/2000/svg" width="43" height="42" viewBox="0 0 43 42">
  <g id="Group_372" data-name="Group 372" transform="translate(-265.5 -10738.346)">
    <path id="Path_940" data-name="Path 940" d="M24.894,18.578c0,.136,0,.432-.012.66a13.08,13.08,0,0,1-.131,1.608,5.361,5.361,0,0,1-.451,1.347,4.8,4.8,0,0,1-2.112,2.11,5.37,5.37,0,0,1-1.355.451,13.08,13.08,0,0,1-1.6.129c-.229.008-.524.012-.66.012l-12.259,0c-.136,0-.432,0-.66-.012a13.1,13.1,0,0,1-1.608-.131A5.36,5.36,0,0,1,2.7,24.3,4.8,4.8,0,0,1,.592,22.187a5.347,5.347,0,0,1-.451-1.355,13.082,13.082,0,0,1-.129-1.6C0,19.008,0,18.712,0,18.576L0,6.318c0-.136,0-.432.012-.66A13.1,13.1,0,0,1,.146,4.049,5.363,5.363,0,0,1,.6,2.7,4.8,4.8,0,0,1,2.709.592,5.348,5.348,0,0,1,4.064.141,13.059,13.059,0,0,1,5.66.012C5.888,0,6.184,0,6.32,0L18.579,0c.136,0,.432,0,.66.012a13.1,13.1,0,0,1,1.608.131A5.356,5.356,0,0,1,22.194.6,4.8,4.8,0,0,1,24.3,2.709a5.35,5.35,0,0,1,.451,1.355,13.082,13.082,0,0,1,.129,1.6c.008.229.012.524.012.66Z" transform="translate(274.457 10747.148)" fill="#fff" fill-rule="evenodd"/>
    <path id="Path_941" data-name="Path 941" d="M389.488,331.237a8.928,8.928,0,0,0-14.051,10.768l-1.266,4.625,4.733-1.241a8.924,8.924,0,0,0,4.266,1.086h0a8.928,8.928,0,0,0,6.315-15.238Zm-6.315,13.731h0a7.411,7.411,0,0,1-3.778-1.035l-.27-.16-2.808.737.75-2.737-.176-.281a7.42,7.42,0,1,1,6.285,3.477Z" transform="translate(-95.986 10421.577)" fill="#081c15" fill-rule="evenodd"/>
    <path id="Path_942" data-name="Path 942" d="M957.169,811.7a1.263,1.263,0,0,0,.488.037c1.256,0,2.341,0,3.113,0,3.6,0,3.507-3.792,1.823-4.265a2.645,2.645,0,0,0,.675-2.955c-.687-1.678-3.643-1.3-5.665-1.3-.748,0-.636.553-.632,1.412.006,1.361,0,5.046,0,6.638C956.972,811.587,957.069,811.636,957.169,811.7Zm1.559-1.39h1.83c.779,0,1.472-.366,1.455-1.141-.013-.73-.5-.97-1.173-1.037-.642.006-1.377.006-2.112.006Zm0-3.639a11.312,11.312,0,0,0,2.617-.131,1.031,1.031,0,0,0,0-1.722,8.124,8.124,0,0,0-2.62-.14Z" transform="translate(-672.977 9951.596)" fill="#081c15" fill-rule="evenodd"/>
    <g id="Rectangle_36" data-name="Rectangle 36" transform="translate(265.5 10738.346)" fill="none" stroke="#fff" stroke-width="1">
      <rect width="43" height="42" rx="5" stroke="none"/>
      <rect x="0.5" y="0.5" width="42" height="41" rx="4.5" fill="none"/>
    </g>
  </g>
</svg>
