<svg xmlns="http://www.w3.org/2000/svg" width="42" height="42" viewBox="0 0 42 42">
  <g id="Group_373" data-name="Group 373" transform="translate(-214.5 -10738.346)">
    <path id="youtube" d="M.748,23.912a4.325,4.325,0,0,0,2.967,3.006c3.5.954,23.141.957,26.7,0a4.341,4.341,0,0,0,2.967-3.006,49.347,49.347,0,0,0-.043-16.964l.043.278A4.325,4.325,0,0,0,30.412,4.22c-3.457-.939-23.146-.974-26.7,0A4.343,4.343,0,0,0,.748,7.227a45.97,45.97,0,0,0,0,16.685Zm12.9-3.157V10.4l8.9,5.186Z" transform="translate(218.82 10743.646)" fill="#fff"/>
    <g id="Rectangle_35" data-name="Rectangle 35" transform="translate(214.5 10738.346)" fill="none" stroke="#fff" stroke-width="1">
      <rect width="42" height="42" rx="5" stroke="none"/>
      <rect x="0.5" y="0.5" width="41" height="41" rx="4.5" fill="none"/>
    </g>
  </g>
</svg>
